<mxfile host="Electron" agent="Mozilla/5.0 (Windows NT 10.0; Win64; x64) AppleWebKit/537.36 (KHTML, like Gecko) draw.io/24.7.17 Chrome/128.0.6613.36 Electron/32.0.1 Safari/537.36" version="24.7.17">
  <diagram name="Page-1" id="IzBPsuSozjD2OfF7bMWB">
    <mxGraphModel dx="1120" dy="2008" grid="1" gridSize="10" guides="1" tooltips="1" connect="1" arrows="1" fold="1" page="1" pageScale="1" pageWidth="1654" pageHeight="1169" math="0" shadow="0">
      <root>
        <mxCell id="0" />
        <mxCell id="1" parent="0" />
        <mxCell id="NJarzTB5q4azEHUb1g-c-1" value="User (Sender)" style="html=1;whiteSpace=wrap;" vertex="1" parent="1">
          <mxGeometry x="20" y="30" width="110" height="50" as="geometry" />
        </mxCell>
        <mxCell id="NJarzTB5q4azEHUb1g-c-2" value="" style="endArrow=none;dashed=1;html=1;rounded=0;entryX=0.5;entryY=1;entryDx=0;entryDy=0;exitX=0.5;exitY=0;exitDx=0;exitDy=0;" edge="1" parent="1" source="NJarzTB5q4azEHUb1g-c-3" target="NJarzTB5q4azEHUb1g-c-1">
          <mxGeometry width="50" height="50" relative="1" as="geometry">
            <mxPoint x="100" y="230" as="sourcePoint" />
            <mxPoint x="80" y="90" as="targetPoint" />
          </mxGeometry>
        </mxCell>
        <mxCell id="NJarzTB5q4azEHUb1g-c-3" value="User (Sender)" style="html=1;whiteSpace=wrap;" vertex="1" parent="1">
          <mxGeometry x="30" y="980" width="110" height="50" as="geometry" />
        </mxCell>
        <mxCell id="NJarzTB5q4azEHUb1g-c-4" value="Wallet App" style="html=1;whiteSpace=wrap;" vertex="1" parent="1">
          <mxGeometry x="570" y="40" width="110" height="50" as="geometry" />
        </mxCell>
        <mxCell id="NJarzTB5q4azEHUb1g-c-5" value="Wallet App" style="html=1;whiteSpace=wrap;" vertex="1" parent="1">
          <mxGeometry x="580" y="990" width="110" height="50" as="geometry" />
        </mxCell>
        <mxCell id="NJarzTB5q4azEHUb1g-c-6" value="" style="endArrow=none;dashed=1;html=1;rounded=0;entryX=0.5;entryY=1;entryDx=0;entryDy=0;exitX=0.5;exitY=0;exitDx=0;exitDy=0;" edge="1" parent="1" source="NJarzTB5q4azEHUb1g-c-5" target="NJarzTB5q4azEHUb1g-c-4">
          <mxGeometry width="50" height="50" relative="1" as="geometry">
            <mxPoint x="150" y="220" as="sourcePoint" />
            <mxPoint x="200" y="170" as="targetPoint" />
          </mxGeometry>
        </mxCell>
        <mxCell id="NJarzTB5q4azEHUb1g-c-8" value="Authentication&amp;nbsp;&lt;br&gt;Service" style="html=1;whiteSpace=wrap;" vertex="1" parent="1">
          <mxGeometry x="980" y="60" width="110" height="50" as="geometry" />
        </mxCell>
        <mxCell id="NJarzTB5q4azEHUb1g-c-9" value="Wallet App" style="html=1;whiteSpace=wrap;" vertex="1" parent="1">
          <mxGeometry x="1490" y="70" width="110" height="50" as="geometry" />
        </mxCell>
        <mxCell id="NJarzTB5q4azEHUb1g-c-10" value="Wallet App" style="html=1;whiteSpace=wrap;" vertex="1" parent="1">
          <mxGeometry x="1480" y="990" width="110" height="50" as="geometry" />
        </mxCell>
        <mxCell id="NJarzTB5q4azEHUb1g-c-11" value="Authentication&lt;br&gt;Service" style="html=1;whiteSpace=wrap;" vertex="1" parent="1">
          <mxGeometry x="980" y="990" width="110" height="50" as="geometry" />
        </mxCell>
        <mxCell id="NJarzTB5q4azEHUb1g-c-12" value="" style="endArrow=none;dashed=1;html=1;rounded=0;entryX=0.5;entryY=1;entryDx=0;entryDy=0;exitX=0.5;exitY=0;exitDx=0;exitDy=0;" edge="1" parent="1" source="NJarzTB5q4azEHUb1g-c-11" target="NJarzTB5q4azEHUb1g-c-8">
          <mxGeometry width="50" height="50" relative="1" as="geometry">
            <mxPoint x="500" y="360" as="sourcePoint" />
            <mxPoint x="550" y="310" as="targetPoint" />
          </mxGeometry>
        </mxCell>
        <mxCell id="NJarzTB5q4azEHUb1g-c-13" value="" style="endArrow=none;dashed=1;html=1;rounded=0;entryX=0.5;entryY=1;entryDx=0;entryDy=0;exitX=0.5;exitY=0;exitDx=0;exitDy=0;" edge="1" parent="1" source="NJarzTB5q4azEHUb1g-c-10" target="NJarzTB5q4azEHUb1g-c-9">
          <mxGeometry width="50" height="50" relative="1" as="geometry">
            <mxPoint x="1390" y="360" as="sourcePoint" />
            <mxPoint x="1440" y="310" as="targetPoint" />
          </mxGeometry>
        </mxCell>
        <mxCell id="NJarzTB5q4azEHUb1g-c-14" value="" style="endArrow=open;endFill=1;endSize=12;html=1;rounded=0;" edge="1" parent="1">
          <mxGeometry width="160" relative="1" as="geometry">
            <mxPoint x="70" y="240" as="sourcePoint" />
            <mxPoint x="630" y="230" as="targetPoint" />
          </mxGeometry>
        </mxCell>
        <mxCell id="NJarzTB5q4azEHUb1g-c-15" value="&lt;font style=&quot;font-size: 32px;&quot;&gt;Initaite money transfer&lt;/font&gt;" style="text;strokeColor=none;fillColor=none;align=left;verticalAlign=top;spacingLeft=4;spacingRight=4;overflow=hidden;rotatable=0;points=[[0,0.5],[1,0.5]];portConstraint=eastwest;whiteSpace=wrap;html=1;" vertex="1" parent="1">
          <mxGeometry x="180" y="180" width="380" height="56" as="geometry" />
        </mxCell>
        <mxCell id="NJarzTB5q4azEHUb1g-c-16" value="" style="endArrow=open;endFill=1;endSize=12;html=1;rounded=0;" edge="1" parent="1">
          <mxGeometry width="160" relative="1" as="geometry">
            <mxPoint x="630" y="720" as="sourcePoint" />
            <mxPoint x="80" y="720" as="targetPoint" />
          </mxGeometry>
        </mxCell>
        <mxCell id="NJarzTB5q4azEHUb1g-c-17" value="&lt;font style=&quot;font-size: 30px;&quot;&gt;Display transfer success&lt;/font&gt;" style="text;strokeColor=none;fillColor=none;align=left;verticalAlign=top;spacingLeft=4;spacingRight=4;overflow=hidden;rotatable=0;points=[[0,0.5],[1,0.5]];portConstraint=eastwest;whiteSpace=wrap;html=1;" vertex="1" parent="1">
          <mxGeometry x="150" y="660" width="370" height="66" as="geometry" />
        </mxCell>
        <mxCell id="NJarzTB5q4azEHUb1g-c-18" value="" style="endArrow=open;endFill=1;endSize=12;html=1;rounded=0;" edge="1" parent="1">
          <mxGeometry width="160" relative="1" as="geometry">
            <mxPoint x="620" y="370" as="sourcePoint" />
            <mxPoint x="1040" y="370" as="targetPoint" />
          </mxGeometry>
        </mxCell>
        <mxCell id="NJarzTB5q4azEHUb1g-c-19" value="&lt;font style=&quot;font-size: 32px;&quot;&gt;Verify user identifity&lt;/font&gt;" style="text;strokeColor=none;fillColor=none;align=left;verticalAlign=top;spacingLeft=4;spacingRight=4;overflow=hidden;rotatable=0;points=[[0,0.5],[1,0.5]];portConstraint=eastwest;whiteSpace=wrap;html=1;" vertex="1" parent="1">
          <mxGeometry x="670" y="320" width="360" height="66" as="geometry" />
        </mxCell>
        <mxCell id="NJarzTB5q4azEHUb1g-c-21" value="" style="endArrow=open;endFill=1;endSize=12;html=1;rounded=0;" edge="1" parent="1">
          <mxGeometry width="160" relative="1" as="geometry">
            <mxPoint x="620" y="570" as="sourcePoint" />
            <mxPoint x="1550" y="570" as="targetPoint" />
          </mxGeometry>
        </mxCell>
        <mxCell id="NJarzTB5q4azEHUb1g-c-22" value="&lt;font style=&quot;font-size: 29px;&quot;&gt;Verification success&lt;/font&gt;" style="text;strokeColor=none;fillColor=none;align=left;verticalAlign=top;spacingLeft=4;spacingRight=4;overflow=hidden;rotatable=0;points=[[0,0.5],[1,0.5]];portConstraint=eastwest;whiteSpace=wrap;html=1;" vertex="1" parent="1">
          <mxGeometry x="1140" y="510" width="340" height="66" as="geometry" />
        </mxCell>
        <mxCell id="NJarzTB5q4azEHUb1g-c-23" value="" style="endArrow=open;endFill=1;endSize=12;html=1;rounded=0;" edge="1" parent="1">
          <mxGeometry width="160" relative="1" as="geometry">
            <mxPoint x="1040" y="730" as="sourcePoint" />
            <mxPoint x="1550" y="730" as="targetPoint" />
          </mxGeometry>
        </mxCell>
        <mxCell id="NJarzTB5q4azEHUb1g-c-24" value="&lt;font style=&quot;font-size: 31px;&quot;&gt;Confirmation of transfer&lt;/font&gt;" style="text;strokeColor=none;fillColor=none;align=left;verticalAlign=top;spacingLeft=4;spacingRight=4;overflow=hidden;rotatable=0;points=[[0,0.5],[1,0.5]];portConstraint=eastwest;whiteSpace=wrap;html=1;" vertex="1" parent="1">
          <mxGeometry x="1130" y="680" width="400" height="66" as="geometry" />
        </mxCell>
        <mxCell id="NJarzTB5q4azEHUb1g-c-25" value="&lt;font style=&quot;font-size: 28px;&quot;&gt;Validate account balance&amp;nbsp;&lt;/font&gt;" style="text;strokeColor=none;fillColor=none;align=left;verticalAlign=top;spacingLeft=4;spacingRight=4;overflow=hidden;rotatable=0;points=[[0,0.5],[1,0.5]];portConstraint=eastwest;whiteSpace=wrap;html=1;" vertex="1" parent="1">
          <mxGeometry x="670" y="520" width="380" height="80" as="geometry" />
        </mxCell>
      </root>
    </mxGraphModel>
  </diagram>
</mxfile>
